<svg
  width="197"
  height="156"
  viewBox="0 0 197 156"
  fill="none"
  xmlns="http://www.w3.org/2000/svg"
>
  <path
    d="M151.554 89.9477C154.434 79.6233 156.738 69.1386 158.466 58.5578C160.226 54.5499 162.21 50.6381 164.386 46.8547C167.074 42.2055 170.241 37.909 173.185 33.4202C175.809 29.4123 178.177 24.9876 178.465 20.146C178.689 16.3626 177.857 12.2905 175.329 9.34071C172.545 6.07026 168.257 4.78773 164.066 5.17249C159.522 5.55725 155.394 7.96199 151.874 10.7515C148.066 13.7975 144.514 17.2603 141.155 20.7552C134.659 27.5206 128.899 34.9913 123.939 42.943C120.291 41.5322 116.771 39.8328 113.252 38.1656C108.132 35.7287 102.948 33.5805 97.4442 32.1377C87.6205 29.5726 76.5489 28.5786 66.9173 32.3621C58.2136 35.7929 50.8859 43.6163 50.7579 53.3635C50.6939 57.2111 51.8139 60.5777 53.6698 63.5276C49.702 65.7079 46.3421 68.818 44.2622 72.9221C42.1502 77.0903 41.7343 82.1884 43.4622 86.549C44.1022 88.1521 44.9981 89.595 46.0861 90.8775C42.8542 93.8273 39.9423 97.5787 38.5984 101.779C37.3184 105.755 38.0544 109.763 40.1663 113.322C40.7743 114.316 41.4783 115.246 42.2462 116.143C38.6944 119.253 37.5424 124.352 38.5984 128.904C39.8143 134.259 43.7182 138.427 47.91 141.73C51.1419 144.263 54.5978 146.539 58.1816 148.559C59.9736 149.681 61.8615 150.74 63.7494 151.701C65.7654 152.695 67.8773 153.625 70.0212 154.266C71.4931 154.715 72.9971 155.1 74.501 155.293C75.525 155.421 76.549 155.485 77.5729 155.453C78.0849 155.453 78.5969 155.421 79.0768 155.357C80.4848 155.228 81.8927 154.844 83.2687 154.395C84.2287 154.074 85.1566 153.657 86.0526 153.144C86.7566 152.76 87.4605 152.343 88.1005 151.894C92.1324 152.856 96.2282 153.401 100.388 153.337C109.252 153.176 117.571 149.585 124.291 143.846C131.683 137.562 136.899 129.193 140.867 120.408C145.314 110.661 148.642 100.304 151.554 89.9477Z"
    fill="#EF9E81"
  />
  <path
    d="M42.7514 117.176C48.8771 121.125 55.2273 124.754 61.7378 127.997C64.945 129.603 68.2163 131.144 71.5517 132.493C74.8551 133.842 78.2547 134.998 81.7825 135.704C85.0538 136.346 88.6138 136.668 91.9172 136.025C93.9697 135.64 96.1827 135.126 97.9466 133.97C99.005 133.296 99.903 132.429 100.737 131.498C101.474 130.663 102.244 129.763 102.789 128.8C103.655 127.227 104.136 125.461 104.329 123.694C104.874 119.231 103.431 114.607 99.8388 111.781C99.3257 111.363 98.7484 110.978 98.1711 110.657C97.7221 110.4 97.3372 111.074 97.7542 111.363C99.8388 112.584 101.507 114.318 102.533 116.533C103.399 118.396 103.719 120.515 103.623 122.57C103.527 124.337 103.174 126.103 102.437 127.708C102.116 128.415 101.699 129.057 101.218 129.667C100.352 130.791 99.3898 131.851 98.2994 132.75C96.76 134.002 94.8677 134.548 92.9755 134.998C89.8325 135.768 86.5291 135.672 83.354 135.19C76.4907 134.131 70.0443 131.176 63.8545 128.158C57.5044 125.075 51.3145 121.639 45.3492 117.882C44.6116 117.433 43.906 116.951 43.1684 116.501C42.7194 116.212 42.3024 116.919 42.7514 117.176Z"
    fill="#C4674E"
  />
  <path
    d="M48.7168 92.0644C55.8687 95.4361 63.0849 98.7115 70.301 101.858C77.2284 104.909 84.22 107.96 91.5323 109.983C95.0602 110.978 98.8447 111.909 102.533 111.267C105.259 110.786 107.761 109.405 109.685 107.446C111.641 105.455 113.052 102.886 113.63 100.124C113.982 98.5189 113.854 96.8491 113.566 95.2435C112.7 90.5873 109.877 86.3806 105.772 84.0365C105.163 83.6833 104.521 83.3943 103.848 83.1052C103.367 82.9126 103.174 83.6833 103.623 83.8759C108.081 85.7384 111.288 89.5918 112.507 94.2159C112.924 95.8215 113.149 97.5234 112.956 99.1611C112.7 101.537 111.513 103.946 110.038 105.808C108.338 107.895 106.061 109.469 103.463 110.208C100.031 111.139 96.4393 110.432 93.0718 109.533C85.984 107.703 79.2169 104.845 72.5139 101.923C65.5223 98.8721 58.5948 95.7573 51.6674 92.5461C50.8014 92.1286 49.9355 91.7433 49.0696 91.3258C48.6526 91.1653 48.2678 91.8717 48.7168 92.0644Z"
    fill="#C4674E"
  />
  <path
    d="M56.2536 64.8657C64.3677 68.2374 72.2252 72.1872 80.211 75.7516C84.1558 77.5177 88.1648 79.1875 92.2379 80.6647C96.3751 82.1739 100.673 83.6511 105.067 84.1327C108.883 84.5823 112.956 84.0685 116.195 81.8207C117.671 80.7931 118.921 79.4444 119.723 77.8388C120.557 76.2012 120.942 74.3387 120.91 72.5083C120.91 68.7191 119.21 65.2189 116.708 62.4252C113.982 59.3746 110.39 57.2552 106.67 55.6175C103.495 54.2046 100.224 53.0486 96.9845 51.7963C93.8094 50.576 90.6984 49.2915 87.6196 47.8786C86.6254 47.4291 85.6311 46.9795 84.6369 46.4978C84.1879 46.273 83.771 46.9795 84.22 47.2043C87.5554 48.7456 90.9229 50.2228 94.3225 51.6036C97.1769 52.7275 100.031 53.8193 102.886 54.9111C106.702 56.3882 110.519 58.0902 113.726 60.6912C116.548 63.0032 118.953 66.086 119.787 69.6825C120.621 73.2148 119.884 77.1966 117.286 79.8298C114.688 82.4629 110.871 83.4905 107.247 83.4263C102.886 83.3621 98.5881 81.9491 94.515 80.5683C90.4419 79.1875 86.465 77.582 82.5523 75.88C74.7268 72.4762 67.0938 68.6228 59.2362 65.2511C58.3062 64.8336 57.344 64.4483 56.4139 64.0629C55.997 63.8703 55.7725 64.673 56.2536 64.8657Z"
    fill="#C4674E"
  />
  <path
    d="M88.7742 150.315C89.9609 147.874 90.4419 145.081 90.1212 142.383C89.9609 141.067 89.6401 139.75 89.127 138.498C88.678 137.406 88.1007 135.961 86.882 135.576C86.4009 135.415 86.1764 136.186 86.6575 136.346C87.2027 136.507 87.5234 137.053 87.78 137.534C88.0686 138.08 88.3252 138.626 88.5497 139.204C88.9666 140.36 89.2553 141.548 89.3515 142.769C89.576 145.209 89.127 147.682 88.0686 149.897C87.8441 150.379 88.5497 150.797 88.7742 150.315Z"
    fill="#C4674E"
  />
  <path
    d="M101.859 77.9672C102.02 73.022 104.168 68.2374 107.728 64.8336C108.113 64.4803 107.536 63.9023 107.151 64.2555C103.431 67.82 101.218 72.7973 101.025 77.9351C101.058 78.481 101.859 78.481 101.859 77.9672Z"
    fill="#C4674E"
  />
  <path
    d="M106.478 65.9254C108.274 66.4392 110.07 67.0493 111.705 67.9805C113.02 68.7191 114.239 69.8109 114.496 71.3844C114.752 72.9257 114.047 74.4992 112.924 75.5268C111.737 76.6507 110.07 77.1645 108.466 77.2929C106.253 77.4535 104.072 76.8434 101.956 76.2332C101.475 76.1048 101.25 76.8755 101.731 77.0039C105.451 78.0957 109.909 79.027 113.213 76.3296C114.496 75.2699 115.362 73.6322 115.329 71.9303C115.329 70.1641 114.303 68.7512 112.924 67.7879C112.09 67.2099 111.16 66.7603 110.23 66.3749C109.075 65.8933 107.889 65.4758 106.67 65.1226C106.189 64.9941 105.997 65.7648 106.478 65.9254Z"
    fill="#C4674E"
  />
  <path
    d="M92.0775 103.464C92.2379 98.1655 94.547 93.0597 98.3635 89.399C98.7484 89.0458 98.1711 88.4678 97.7863 88.821C93.8094 92.6102 91.4361 97.9407 91.2437 103.464C91.2437 103.978 92.0454 103.978 92.0775 103.464Z"
    fill="#C4674E"
  />
  <path
    d="M97.0486 90.5549C98.9408 91.1008 100.865 91.7751 102.597 92.7385C104.04 93.5413 105.387 94.7294 105.644 96.4634C105.868 98.1011 105.131 99.771 103.944 100.863C102.629 102.083 100.833 102.629 99.1012 102.757C96.7279 102.918 94.4187 102.276 92.1737 101.633C91.6927 101.505 91.4682 102.276 91.9492 102.404C95.862 103.56 100.609 104.556 104.104 101.762C105.516 100.638 106.446 98.8718 106.446 97.0414C106.446 95.1469 105.323 93.6376 103.848 92.5779C102.95 91.9357 101.956 91.4861 100.961 91.0687C99.7426 90.5549 98.4918 90.1053 97.241 89.7521C96.76 89.6237 96.5355 90.3943 97.0486 90.5549Z"
    fill="#C4674E"
  />
  <path
    d="M83.4182 129.314C83.5786 124.015 85.8877 118.91 89.7042 115.249C90.0891 114.896 89.5118 114.318 89.1269 114.671C85.1501 118.46 82.7768 123.791 82.5844 129.314C82.5844 129.828 83.3861 129.828 83.4182 129.314Z"
    fill="#C4674E"
  />
  <path
    d="M88.3894 116.373C90.2816 116.919 92.2059 117.593 93.9378 118.556C95.381 119.359 96.728 120.547 96.9846 122.281C97.2091 123.919 96.4714 125.589 95.2848 126.681C93.9698 127.901 92.1738 128.447 90.442 128.575C88.0687 128.736 85.7595 128.094 83.5145 127.451C83.0334 127.323 82.8089 128.094 83.29 128.222C87.2027 129.378 91.9493 130.374 95.4451 127.58C96.8563 126.456 97.7863 124.69 97.7863 122.859C97.7863 120.965 96.6638 119.456 95.1885 118.396C94.2905 117.754 93.2963 117.304 92.3021 116.887C91.0834 116.373 89.8326 115.923 88.5818 115.57C88.1007 115.442 87.8762 116.244 88.3894 116.373Z"
    fill="#C4674E"
  />
  <path
    d="M73.1232 148.806C73.2515 144.824 74.9833 140.97 77.8698 138.209C78.2546 137.856 77.6774 137.278 77.2925 137.631C74.2457 140.521 72.4497 144.599 72.3214 148.774C72.3214 149.32 73.1232 149.32 73.1232 148.806Z"
    fill="#C4674E"
  />
  <path
    d="M76.7794 139.108C78.1906 139.525 79.6338 140.007 80.9167 140.746C81.975 141.356 83.0013 142.223 83.1937 143.507C83.3862 144.727 82.8089 146.012 81.9109 146.815C80.9167 147.714 79.5697 148.099 78.2868 148.196C76.5229 148.292 74.8231 147.842 73.1233 147.329C72.6422 147.2 72.4177 147.971 72.8988 148.099C75.9135 148.966 79.5376 149.737 82.1995 147.585C83.2899 146.718 83.9955 145.37 83.9955 143.957C83.9955 142.512 83.1617 141.324 82.0071 140.489C80.5318 139.429 78.6716 138.819 76.9398 138.337C76.4908 138.177 76.2983 138.947 76.7794 139.108Z"
    fill="#C4674E"
  />
  <path
    d="M174.373 114.51L171.711 105.358L169.242 114.51L160.39 117.432L169.242 120.419L171.711 130.341L174.501 120.483L183.032 117.432L174.373 114.51Z"
    fill="#FFD62A"
  />
  <path
    d="M27.0683 44.0895L24.4705 35.1303L22.0331 44.0574L13.3738 46.9474L22.0331 49.8375L24.4705 59.5673L27.1966 49.9017L35.5673 46.9474L27.0683 44.0895Z"
    fill="#FFD62A"
  />
  <path
    d="M191.628 90.9723L190.024 85.4491L188.517 90.9723L183.193 92.7063L188.517 94.5046L190.024 100.509L191.692 94.5688L196.855 92.7063L191.628 90.9723Z"
    fill="#FFD62A"
  />
  <path
    d="M8.27447 73.7926L6.70296 68.3978L5.22767 73.7926L0 75.5266L5.22767 77.2607L6.70296 83.1371L8.33861 77.2928L13.3738 75.5266L8.27447 73.7926Z"
    fill="#FFD62A"
  />
  <path
    d="M109.556 4.46353L108.274 0L107.055 4.46353L102.757 5.87644L107.055 7.32147L108.274 12.1703L109.621 7.35358L113.79 5.87644L109.556 4.46353Z"
    fill="#FFD62A"
  />
  <path
    d="M25.7535 142.255L24.4706 137.791L23.2519 142.255L18.9543 143.7L23.2519 145.145L24.4706 149.962L25.8176 145.177L29.9869 143.7L25.7535 142.255Z"
    fill="#FFD62A"
  />
</svg>
